<?xml version="1.0" encoding="UTF-8"?> <svg xmlns="http://www.w3.org/2000/svg" xmlns:xlink="http://www.w3.org/1999/xlink" height="458pt" viewBox="0 -5 458.47425 458" width="458pt"><linearGradient id="linear0" gradientUnits="userSpaceOnUse" x1="229.238798" x2="229.238798" y1="-13.370162" y2="482.541838"><stop offset="0" stop-color="#fc5c7d"></stop><stop offset=".129" stop-color="#f35e85"></stop><stop offset=".343" stop-color="#d9659b"></stop><stop offset=".616" stop-color="#b070bf"></stop><stop offset=".934" stop-color="#777ff0"></stop><stop offset="1" stop-color="#6a82fb"></stop></linearGradient><path d="m442.246094 1.308594-128.230469 74.050781c-2.460937-17.410156-16.253906-31.027344-33.691406-33.265625-17.4375-2.242188-34.222657 7.449219-41 23.671875-6.78125 16.222656-1.882813 34.972656 11.960937 45.808594l-22.007812 12.71875-21.992188-12.6875c13.820313-10.859375 18.683594-29.609375 11.894532-45.816407-6.792969-16.210937-23.570313-25.890624-41.003907-23.65625-17.429687 2.230469-31.226562 15.828126-33.714843 33.226563l-128.167969-74.035156c-1.835938-1.0625-4.023438-1.3476565-6.074219-.796875-2.050781.550781-3.800781 1.894531-4.859375 3.734375-11.046875 19.132812-4.492187 43.59375 14.640625 54.640625l93.789062 54.144531-4.476562 57.679687c-.605469 7.75-2.296875 15.375-5.027344 22.65625l-13.109375 34.960938c-4.722656 12.671875-5.191406 26.539062-1.328125 39.503906l6.085938 20.308594h-19.640625c-13.253907 0-24 10.746094-24 24 .058593 13.234375 10.769531 23.945312 24 24h40c.296875 0 .589843-.015625.882812-.046875l30.296875-3.367187-6.027344 90.398437v1.121094c-.046874 12.941406 10.203126 23.578125 23.136719 24.011719 12.933594.429687 23.871094-9.496094 24.6875-22.410157l7.042969-105.121093h-.1875c.113281-.769532.113281-1.550782 0-2.320313l-15.582031-67.519531c-3.183594-13.96875-3.480469-28.441406-.863281-42.527344l49.597656-28.609375 27.203125 15.71875.71875 11.203125-41.359375 89.375c-4.484375 9.949219-5.523438 21.113281-2.953125 31.71875l24.488281 97.976562c2.863281 11.054688 12.820312 18.785157 24.238281 18.816407 7.441407-.011719 14.488281-3.355469 19.195313-9.113281 4.710937-5.761719 6.59375-13.328126 5.125-20.625l-18.648438-93.652344c11.511719 8.074218 27.382813 5.328125 35.511719-6.144532l27.027344-37.882812c4.886719-6.761719 7.511719-14.894531 7.503906-23.238281l-.082031-44.960938 9.601562-97.109375 91.640625-52.921875c19.078125-11.09375 25.640625-35.496093 14.703125-54.664062-1.058594-1.84375-2.804687-3.195313-4.859375-3.75-2.054687-.5507815-4.242187-.265625-6.085937.796875zm-166.808594 56.554687c12.789062-.007812 23.160156 10.359375 23.160156 23.148438.003906 12.789062-10.363281 23.15625-23.152344 23.152343-12.789062 0-23.15625-10.371093-23.152343-23.160156.03125-12.765625 10.375-23.109375 23.144531-23.140625zm-115.550781 23.199219c-.503907-8.601562 3.792969-16.769531 11.167969-21.222656s16.609374-4.453125 23.984374 0c7.371094 4.453125 11.671876 12.621094 11.167969 21.222656.003907 9.503906-5.84375 18.027344-14.710937 21.449219l-31.351563-18.105469c-.171875-1.113281-.253906-2.242188-.257812-3.367188zm-89.296875 236.648438c-1.484375-1.464844-2.316406-3.46875-2.296875-5.554688 0-4.417969 3.582031-8 8-8h24.441406l4.800781 16h-29.242187c-2.15625.011719-4.222657-.875-5.703125-2.445312zm94.777344 114.445312c-4.371094-.003906-7.914063-3.546875-7.921876-7.917969v-.585937l6.195313-92.703125 16.085937-1.792969-6.398437 95.585938c-.308594 4.171874-3.777344 7.40625-7.960937 7.414062zm13.121093-118.957031-56.441406 6.269531-16.863281-56.214844c-2.867188-9.609375-2.519532-19.890625.984375-29.289062l13.117187-34.96875c3.257813-8.683594 5.273438-17.78125 5.992188-27.03125l4.875-62.703125c.234375-3.078125-1.324219-6.015625-4-7.550781l-98.152344-56.671876c-8.808594-5.085937-13.453125-15.171874-11.59375-25.167968l289.136719 166.941406c-7.738281 6.597656-18.792969 7.609375-27.601563 2.53125l-80.390625-46.402344c-1.96875-1.136718-4.324219-1.382812-6.484375-.675781-2.160156.703125-3.917968 2.292969-4.835937 4.371094l-14.144531 32.042969c-10.460938 23.824218-12.984376 50.386718-7.199219 75.757812zm7.941407-127.273438c.113281-.257812.191406-.527343.304687-.800781l10.542969-23.894531 15.953125 9.214843zm134.863281 68c.003906 4.996094-1.574219 9.867188-4.511719 13.910157l-27.039062 37.921874c-2.734376 4.203126-8.246094 5.589844-12.644532 3.1875-4.402344-2.40625-6.210937-7.789062-4.15625-12.363281v-.121093l23.578125-53.03125-14.617187-6.496094-23.757813 53.441406-8.234375 18.550781c-.664062 1.507813-.851562 3.183594-.527344 4.800781l20.800782 104.238282c.890625 4.722656-2.125 9.296875-6.8125 10.339844-4.691406 1.039062-9.359375-1.828126-10.546875-6.484376l-24.402344-97.871093c-1.75-7.097657-1.058594-14.582031 1.96875-21.238281l42.160156-91.199219c.5625-1.207031.808594-2.539063.71875-3.867188l-.191406-3.015625c17.757813 8.570313 39.117187 2.640625 49.921875-13.855468l-1.714844 17.382812zm109.195312-208.855469-95.203125 54.960938c-2.246094 1.277344-3.738281 3.566406-4 6.144531l-7.199218 73.644531c-.640626-.886718-1.457032-1.632812-2.398438-2.191406l-76.394531-44.101562 24.195312-13.976563c18.21875 3.328125 36.167969-7.03125 42.398438-24.472656l130.238281-75.199219c1.816406 10.007813-2.839844 20.082032-11.636719 25.191406zm0 0" fill="url(#linear0)"></path></svg> 