<?xml version="1.0" encoding="UTF-8"?> <svg xmlns="http://www.w3.org/2000/svg" xmlns:xlink="http://www.w3.org/1999/xlink" height="472pt" viewBox="0 -9 472 472" width="472pt"><linearGradient id="lg1"><stop offset=".322" stop-color="#a163f5"></stop><stop offset=".466" stop-color="#b074ee"></stop><stop offset=".752" stop-color="#d8a1dd"></stop><stop offset=".898" stop-color="#efbad3"></stop></linearGradient><linearGradient id="linear0" gradientUnits="userSpaceOnUse" x1="130.436" x2="130.436" xlink:href="#lg1" y1="449.83" y2="8.36"></linearGradient><linearGradient id="linear1" gradientUnits="userSpaceOnUse" x1="201.108" x2="201.108" xlink:href="#lg1" y1="449.83" y2="8.36"></linearGradient><linearGradient id="linear2" gradientUnits="userSpaceOnUse" x1="342.452" x2="342.452" xlink:href="#lg1" y1="449.83" y2="8.36"></linearGradient><linearGradient id="linear3" gradientUnits="userSpaceOnUse" x1="271.78" x2="271.78" xlink:href="#lg1" y1="449.83" y2="8.36"></linearGradient><linearGradient id="linear4" gradientUnits="userSpaceOnUse" x1="381.459" x2="381.459" xlink:href="#lg1" y1="449.83" y2="8.36"></linearGradient><linearGradient id="linear5" gradientUnits="userSpaceOnUse" x1="89.428" x2="89.428" xlink:href="#lg1" y1="449.83" y2="8.36"></linearGradient><linearGradient id="linear6" gradientUnits="userSpaceOnUse" x1="162.436" x2="162.436" xlink:href="#lg1" y1="449.83" y2="8.36"></linearGradient><linearGradient id="linear7" gradientUnits="userSpaceOnUse" x1="235.444" x2="235.444" xlink:href="#lg1" y1="449.83" y2="8.36"></linearGradient><linearGradient id="linear8" gradientUnits="userSpaceOnUse" x1="308.452" x2="308.452" xlink:href="#lg1" y1="449.83" y2="8.36"></linearGradient><linearGradient id="linear9" gradientUnits="userSpaceOnUse" x1="236" x2="236" xlink:href="#lg1" y1="449.83" y2="8.36"></linearGradient><path d="m130.4375 243.898438c-10.136719 0-18.355469 8.214843-18.355469 18.351562s8.21875 18.355469 18.355469 18.355469c10.132812 0 18.351562-8.21875 18.351562-18.355469-.011718-10.128906-8.222656-18.339844-18.351562-18.351562zm0 24.707031c-3.507812 0-6.355469-2.84375-6.355469-6.355469 0-3.507812 2.84375-6.351562 6.355469-6.351562 3.507812 0 6.351562 2.84375 6.351562 6.351562-.003906 3.507812-2.84375 6.347656-6.351562 6.355469zm0 0" fill="url(#linear0)"></path><path d="m201.109375 243.898438c-10.136719 0-18.355469 8.214843-18.355469 18.351562s8.21875 18.355469 18.355469 18.355469c10.132813 0 18.351563-8.21875 18.351563-18.355469-.011719-10.128906-8.222657-18.339844-18.351563-18.351562zm0 24.707031c-3.511719 0-6.355469-2.847657-6.355469-6.355469s2.84375-6.351562 6.355469-6.351562c3.507813 0 6.351563 2.84375 6.351563 6.351562-.003907 3.507812-2.847657 6.351562-6.351563 6.355469zm0 0" fill="url(#linear1)"></path><path d="m342.453125 243.898438c-10.136719 0-18.355469 8.214843-18.355469 18.351562s8.21875 18.355469 18.355469 18.355469 18.351563-8.21875 18.351563-18.355469c-.011719-10.128906-8.222657-18.339844-18.351563-18.351562zm0 24.707031c-3.511719 0-6.355469-2.847657-6.355469-6.355469s2.84375-6.351562 6.355469-6.351562c3.507813 0 6.351563 2.84375 6.351563 6.351562-.003907 3.507812-2.84375 6.351562-6.351563 6.355469zm0 0" fill="url(#linear2)"></path><path d="m271.78125 243.898438c-10.136719 0-18.355469 8.214843-18.355469 18.351562s8.21875 18.355469 18.355469 18.355469 18.351562-8.21875 18.351562-18.355469c-.011718-10.128906-8.222656-18.339844-18.351562-18.351562zm0 24.707031c-3.511719 0-6.355469-2.847657-6.355469-6.355469s2.84375-6.351562 6.355469-6.351562c3.507812 0 6.351562 2.84375 6.351562 6.351562-.003906 3.507812-2.847656 6.351562-6.351562 6.355469zm0 0" fill="url(#linear3)"></path><path d="m381.460938 383.898438c-10.136719 0-18.355469 8.214843-18.355469 18.351562s8.21875 18.355469 18.351562 18.355469c10.136719 0 18.355469-8.21875 18.355469-18.355469-.011719-10.128906-8.222656-18.339844-18.351562-18.351562zm0 24.707031c-3.507813 0-6.355469-2.84375-6.355469-6.355469 0-3.507812 2.84375-6.351562 6.351562-6.351562 3.511719 0 6.355469 2.84375 6.355469 6.351562-.003906 3.507812-2.847656 6.347656-6.351562 6.355469zm0 0" fill="url(#linear4)"></path><path d="m89.429688 383.898438c-10.136719 0-18.355469 8.214843-18.355469 18.351562s8.21875 18.355469 18.351562 18.355469c10.136719 0 18.355469-8.21875 18.355469-18.355469-.011719-10.128906-8.222656-18.339844-18.351562-18.351562zm0 24.707031c-3.507813 0-6.355469-2.84375-6.355469-6.355469 0-3.507812 2.84375-6.351562 6.351562-6.351562 3.511719 0 6.355469 2.84375 6.355469 6.351562-.003906 3.507812-2.847656 6.347656-6.351562 6.355469zm0 0" fill="url(#linear5)"></path><path d="m162.4375 383.898438c-10.136719 0-18.355469 8.214843-18.355469 18.351562s8.21875 18.355469 18.355469 18.355469c10.132812 0 18.351562-8.21875 18.351562-18.355469-.011718-10.128906-8.222656-18.339844-18.351562-18.351562zm0 24.707031c-3.507812 0-6.355469-2.84375-6.355469-6.355469 0-3.507812 2.84375-6.351562 6.355469-6.351562 3.507812 0 6.351562 2.84375 6.351562 6.351562-.003906 3.507812-2.84375 6.347656-6.351562 6.355469zm0 0" fill="url(#linear6)"></path><path d="m235.445312 383.898438c-10.136718 0-18.351562 8.21875-18.351562 18.355468 0 10.136719 8.21875 18.351563 18.355469 18.351563 10.132812-.003907 18.351562-8.21875 18.351562-18.355469-.011719-10.132812-8.222656-18.34375-18.355469-18.351562zm0 24.707031c-3.511718 0-6.355468-2.847657-6.355468-6.355469s2.84375-6.351562 6.355468-6.351562c3.507813 0 6.351563 2.84375 6.351563 6.351562-.003906 3.507812-2.847656 6.351562-6.351563 6.355469zm0 0" fill="url(#linear7)"></path><path d="m308.453125 383.898438c-10.136719 0-18.355469 8.214843-18.355469 18.351562s8.21875 18.355469 18.355469 18.355469 18.351563-8.21875 18.351563-18.355469c-.011719-10.128906-8.222657-18.339844-18.351563-18.351562zm0 24.707031c-3.511719 0-6.355469-2.847657-6.355469-6.355469s2.84375-6.351562 6.355469-6.351562c3.507813 0 6.351563 2.84375 6.351563 6.351562-.003907 3.507812-2.84375 6.351562-6.351563 6.355469zm0 0" fill="url(#linear8)"></path><path d="m466 441.066406h-38.707031v-117.027344c0-14.359374-11.640625-26-26-26h-.023438l-19.269531.015626v-101.425782c0-11.65625-9.453125-21.109375-21.109375-21.109375h-.015625l-90.953125.085938v-79.898438c0-3.3125-2.683594-6-6-6h-22.179687v-6.339843c6.945312-1.234376 13.339843-4.585938 18.300781-9.601563l.101562-.097656c12.878907-13.78125 12.859375-35.191407-.046875-48.949219l-24.097656-24.71875-24.140625 24.761719c-12.867187 13.757812-12.867187 35.136719 0 48.898437l.101563.101563c4.835937 4.886719 11.035156 8.203125 17.785156 9.511719v6.429687h-21.671875c-3.3125 0-6 2.683594-6 6v79.96875l-90.984375.085937c-11.644532.027344-21.078125 9.46875-21.089844 21.117188v101.460938l-19.324219.019531c-14.339843.03125-25.953125 11.65625-25.972656 26v116.703125h-38.703125c-3.3125 0-6 2.6875-6 6 0 3.316406 2.6875 6 6 6h460c3.3125 0 6-2.683594 6-6 0-3.3125-2.6875-6-6-6zm-245.507812-407.976562 15.507812-15.898438 15.460938 15.855469c8.488281 9.078125 8.507812 23.175781.046874 32.277344-4.066406 4.199219-9.664062 6.570312-15.507812 6.570312s-11.441406-2.371093-15.507812-6.570312c-8.453126-9.082031-8.453126-23.152344 0-32.234375zm37.429687 100.613281h-43.847656v-10h43.847656zm0 12v10h-43.847656v-10zm0-44v10h-43.847656v-10zm-43.847656 66h43.847656v7.914063l-43.847656.042968zm-102.972657 20.058594 249.773438-.242188h.007812c5.035157-.003906 9.117188 4.078125 9.117188 9.109375v7.148438c-4.699219 8.023437-13.390625 12.851562-22.683594 12.605468-9.292968-.246093-17.714844-5.523437-21.984375-13.78125l-.054687-.101562c-1.054688-1.964844-3.109375-3.179688-5.339844-3.160156-2.226562.019531-4.261719 1.269531-5.28125 3.253906-4.378906 8.464844-13.109375 13.78125-22.640625 13.792969-9.53125.007812-18.269531-5.292969-22.667969-13.75-1.003906-1.992188-3.035156-3.261719-5.269531-3.292969-2.273437-.019531-4.367187 1.234375-5.421875 3.246094-4.382812 8.472656-13.125 13.792968-22.667969 13.792968-9.539062 0-18.28125-5.320312-22.664062-13.792968-.027344-.050782-.058594-.113282-.089844-.164063-1.074219-1.933593-3.121094-3.121093-5.332031-3.085937-2.210938.03125-4.226563 1.277344-5.242188 3.242187-4.382812 8.472657-13.125 13.792969-22.664062 13.792969-9.542969 0-18.285156-5.320312-22.667969-13.792969-1.015625-1.964843-3.03125-3.210937-5.246094-3.242187-2.210937-.03125-4.261719 1.15625-5.332031 3.09375-.027344.050781-.058594.097656-.085938.15625-4.265624 8.257812-12.6875 13.539062-21.980468 13.789062-9.289063.246094-17.980469-4.578125-22.683594-12.59375v-6.914062c.003906-5.023438 4.074219-9.097656 9.101562-9.109375zm-9.101562 33.507812c15.59375 11.265625 37.179688 8.929688 50-5.414062 7.109375 7.984375 17.300781 12.542969 27.992188 12.519531 10.695312.023438 20.882812-4.535156 27.996093-12.519531 7.125 7.96875 17.308594 12.523437 28 12.523437 10.6875 0 20.871094-4.554687 28-12.523437 7.121094 7.972656 17.304688 12.527343 27.996094 12.527343 10.691406-.003906 20.871094-4.5625 27.992187-12.535156 12.820313 14.355469 34.417969 16.703125 50.023438 5.433594v76.785156l-268 .261719zm-31.308594 89.085938 330.589844-.316407h.011719c7.730469 0 14 6.265626 14 14v9.964844c-6.453125 11.414063-18.648438 18.371094-31.757813 18.121094s-25.027344-7.667969-31.042968-19.320312c-1.035157-1.988282-3.089844-3.234376-5.328126-3.230469-2.246093.003906-4.300781 1.257812-5.332031 3.25-6.132812 11.859375-18.371093 19.304687-31.722656 19.304687s-25.585937-7.445312-31.722656-19.304687l-.070313-.132813c-1.050781-1.925781-3.070312-3.125-5.265625-3.125h-.019531c-2.199219.003906-4.222656 1.214844-5.265625 3.15625-.015625.027344-.035156.070313-.050781.097656-6.136719 11.859376-18.375 19.308594-31.726563 19.308594-13.351562 0-25.585937-7.449218-31.722656-19.308594-.046875-.089843-.097656-.191406-.152344-.277343-1.101562-1.890625-3.148437-3.03125-5.335937-2.976563-2.1875.058594-4.167969 1.300782-5.175782 3.242188-6.132812 11.859375-18.371093 19.308594-31.722656 19.308594-13.355468 0-25.59375-7.449219-31.726562-19.308594-1.03125-1.992188-3.089844-3.246094-5.335938-3.242188-2.246094 0-4.300781 1.257813-5.328125 3.253906-6.019531 11.644532-17.933593 19.054688-31.039062 19.304688s-25.292969-6.707031-31.75-18.113281v-9.652344c.007812-7.726563 6.265625-13.988281 13.992187-14.003906zm-13.992187 42.304687c9.789062 8.367188 22.535156 12.429688 35.359375 11.269532 12.824218-1.164063 24.636718-7.457032 32.757812-17.445313 9.066406 11.152344 22.675782 17.628906 37.050782 17.628906s27.984374-6.476562 37.054687-17.628906c9.042969 11.183594 22.671875 17.671875 37.058594 17.640625 14.386719.03125 28.011719-6.449219 37.066406-17.632812 9.066406 11.160156 22.675781 17.636718 37.054687 17.636718 14.378907 0 27.992188-6.476562 37.058594-17.636718 9.042969 11.191406 22.675782 17.679687 37.0625 17.648437 11.398438.019531 22.421875-4.050781 31.066406-11.472656v88.398437h-358.582031zm0 0" fill="url(#linear9)"></path></svg> 