<?xml version="1.0" encoding="UTF-8"?> <svg xmlns="http://www.w3.org/2000/svg" xmlns:xlink="http://www.w3.org/1999/xlink" id="Layer_1" data-name="Layer 1" viewBox="0 0 512 512" width="512" height="512"><defs><linearGradient id="linear-gradient" x1="256.458" y1="492.965" x2="256.458" y2="15.456" gradientUnits="userSpaceOnUse"><stop offset="0.322" stop-color="#a163f5"></stop><stop offset="0.466" stop-color="#b074ee"></stop><stop offset="0.752" stop-color="#d8a1dd"></stop><stop offset="0.898" stop-color="#efbad3"></stop></linearGradient></defs><title>graduation hat 02</title><path d="M452,345.938V227.215l15.981-6.655c11.182-4.655,12.852-11.448,12.853-15.083s-1.67-10.429-12.852-15.085L279.4,111.872c-13.121-5.463-33.677-5.463-46.8,0L44.018,190.392c-11.182,4.656-12.851,11.45-12.851,15.085s1.67,10.428,12.851,15.083L109,247.617v97.748A6.7,6.7,0,0,0,116,352h9.962c36.532,0,73.277,33.715,97.592,55.9,16.269,14.848,23.76,21.5,30.82,21.5,6.943,0,14.4-6.7,30.594-21.556,24.195-22.186,60.758-55.85,96.2-55.85H393a6.7,6.7,0,0,0,7-6.635v-96.5l38-15.822v112.8a36.983,36.983,0,1,0,14,.09ZM45.627,205.477a13.725,13.725,0,0,1,3.772-2.162L237.981,124.8c9.6-4,26.439-4,36.037,0L462.6,203.315a13.72,13.72,0,0,1,3.773,2.162,13.763,13.763,0,0,1-3.772,2.16l-188.582,78.52c-9.6,4-26.439,4-36.037,0L49.4,207.637A13.763,13.763,0,0,1,45.627,205.477ZM386,338h-4.837c-40.884,0-79.863,35.926-105.656,59.577-7.847,7.195-17.523,16.159-21.165,17.706-3.678-1.5-13.438-10.545-21.351-17.766C207.079,373.871,167.921,338,125.962,338H123V253.446l109.6,45.635c6.56,2.731,14.98,4.1,23.4,4.1s16.839-1.367,23.4-4.1L386,254.7Zm58.752,67.448a23.115,23.115,0,1,1,23-23.114A23.085,23.085,0,0,1,444.752,405.448Z" style="fill:url(#linear-gradient)"></path></svg> 