<?xml version="1.0" encoding="UTF-8"?> <svg xmlns="http://www.w3.org/2000/svg" xmlns:xlink="http://www.w3.org/1999/xlink" id="_x33_0" height="512" viewBox="0 0 64 64" width="512"><linearGradient id="SVGID_1_" gradientUnits="userSpaceOnUse" x1="32" x2="32" y1="63" y2="1"><stop offset="0" stop-color="#9f2fff"></stop><stop offset="1" stop-color="#0bb1d3"></stop></linearGradient><path d="m22 16c0 1.654 1.346 3 3 3s3-1.346 3-3-1.346-3-3-3-3 1.346-3 3zm4 0c0 .551-.449 1-1 1s-1-.449-1-1 .449-1 1-1 1 .449 1 1zm8-13c-1.654 0-3 1.346-3 3s1.346 3 3 3 3-1.346 3-3-1.346-3-3-3zm0 4c-.551 0-1-.449-1-1s.449-1 1-1 1 .449 1 1-.449 1-1 1zm10 8c0 1.654 1.346 3 3 3s3-1.346 3-3-1.346-3-3-3-3 1.346-3 3zm4 0c0 .551-.449 1-1 1s-1-.449-1-1 .449-1 1-1 1 .449 1 1zm12 9c-1.654 0-3 1.346-3 3s1.346 3 3 3 3-1.346 3-3-1.346-3-3-3zm0 4c-.551 0-1-.449-1-1s.449-1 1-1 1 .449 1 1-.449 1-1 1zm-4-21c1.654 0 3-1.346 3-3s-1.346-3-3-3-3 1.346-3 3 1.346 3 3 3zm0-4c.551 0 1 .449 1 1s-.449 1-1 1-1-.449-1-1 .449-1 1-1zm-51 16c0 1.654 1.346 3 3 3s3-1.346 3-3-1.346-3-3-3-3 1.346-3 3zm4 0c0 .551-.449 1-1 1s-1-.449-1-1 .449-1 1-1 1 .449 1 1zm-.211-12h.824l-.078-.234c-.415-1.246-.111-2.611.794-3.562.739-.777 1.734-1.204 2.76-1.204 1.514 0 2.898.572 3.937 1.612 1.918 1.918 2.974 4.468 2.974 7.18v2.208h-2v-2.208c0-2.178-.848-4.226-2.388-5.766-.662-.662-1.544-1.026-2.484-1.026-.521 0-.987.2-1.32.549-.425.447-.557 1.042-.376 1.584l.955 2.867h-3.598c-.362 0-.724.085-1.047.247-.458.229-.742.689-.742 1.2 0 .208.049.415.142.6.348.695.979 1.202 1.734 1.391l6.367 1.592-.485 1.94-6.368-1.592c-1.321-.331-2.428-1.219-3.038-2.437-.23-.461-.352-.978-.352-1.494 0-1.274.708-2.419 1.848-2.989.598-.299 1.27-.458 1.941-.458zm-6.685 16.482c-.712.712-1.104 1.658-1.104 2.664 0 1.859 1.309 3.42 3.111 3.712.579.095 1.215.142 1.889.142 1.903 0 3.737.005 5.545.792-1.048 1.473-1.9 3.11-2.493 4.891l-.233.701 18.36 13.114-3.139 9.132 7.96-5.687 7.961 5.687-3.139-9.131 18.36-13.114-.233-.701c-2.529-7.587-9.601-12.684-17.598-12.684h-1.065l-4.286 12.469-4.286-12.469h-1.065c-3.764 0-7.316 1.141-10.293 3.127-.214-.616-.356-1.323-.356-2.127 0-1.817.982-3.158 2.022-4.579.973-1.328 1.978-2.702 1.978-4.421h-2c0 1.065-.738 2.073-1.592 3.24-1.129 1.542-2.408 3.289-2.408 5.76 0 1.313.287 2.43.692 3.362-.664.56-1.284 1.172-1.866 1.823-2.355-1.179-4.692-1.185-6.826-1.185-.567 0-1.095-.039-1.569-.116-.816-.132-1.431-.879-1.431-1.738 0-.472.184-.917.518-1.25l1.189-1.189-1.414-1.414zm24.601 2.737 2.979 8.667c-1.333 1.133-5.305 3.733-13.823 4.073l-3.567-2.548.154-.042c5.811-1.585 10.856-5.189 14.257-10.15zm6.35 18.471c-.684.664-2.503 2.032-5.992 2.269l-3.069-2.192c4.128-.503 6.692-1.731 8.152-2.72zm-11.585-1.726-3.05-2.179c6.492-.632 10.152-2.563 11.953-3.897l1.094 3.183c-1.211.936-4.196 2.642-9.997 2.893zm6.491 10.406.914-2.659 1.404 1.003zm1.456-4.73c2.032-.451 3.44-1.247 4.333-1.929l2.289 6.659zm10.583-4.64c-1.103 0-2-.897-2-2s.897-2 2-2 2 .897 2 2-.897 2-2 2zm8-8c0-.293.07-.574.19-.834 1.09.47 2.205.887 3.362 1.203l.154.042-2.149 1.535c-.894-.204-1.557-1.002-1.557-1.946zm4.327-1.493-.25-.068c-5.358-1.461-10.009-4.785-13.143-9.363 5.828.555 10.914 4.148 13.393 9.431zm-11.327-3.507c0 2.206-1.794 4-4 4-.898 0-1.737-.305-2.433-.844l2.728-7.937c1.062 1.549 2.291 2.955 3.648 4.218.026.186.057.373.057.563zm-7.111 5.126c.928.566 1.993.874 3.111.874 2.938 0 5.384-2.123 5.897-4.915 1.101.835 2.27 1.574 3.495 2.221-.247.527-.392 1.098-.392 1.694 0 1.344.674 2.54 1.706 3.267l-3.714 2.653c-.044-2.168-1.814-3.92-3.992-3.92-2.206 0-4 1.794-4 4 0 1.725 1.103 3.184 2.636 3.745l-2.492 1.78-3.087-8.979zm-18.167-6.998c.827 1.09 1.654 1.658 1.723 1.704l1.109-1.664c-.013-.008-.633-.433-1.259-1.27 2.271-1.556 4.931-2.551 7.769-2.822-3.134 4.577-7.785 7.902-13.143 9.363l-.25.068c.45-.959.993-1.855 1.603-2.694.339.259.678.556 1.017.894l1.414-1.414c-.387-.387-.775-.724-1.164-1.025.376-.401.771-.779 1.181-1.14zm9.278-21.128c0 1.414 3.908 2 6 2v2c-.819 0-8-.112-8-4 0-1.762 1.689-2.468 2.923-2.983.365-.153.946-.396 1.17-.573-.613-1.002-3.366-1.442-5.093-1.444v-2c.938 0 5.68.123 6.895 2.553.334.668.254 1.213.128 1.552-.345.929-1.354 1.35-2.329 1.757-.755.315-1.694.708-1.694 1.138zm6 8c1.608 0 4 .951 4 3.571 0 3.342-4.595 4.365-4.791 4.407l-.419-1.956c.031-.006 3.21-.749 3.21-2.451 0-1.527-1.795-1.571-2-1.571zm16.121-8.293.586.586-1.414 1.414-.586-.586c-1.446-1.446-3.968-1.446-5.414 0-.834.834-1.293 1.942-1.293 3.122v.181c0 1.252.49 2.456 1.381 3.389 1.738 1.821 2.619 3.566 2.619 5.187h-2c0-1.059-.734-2.41-2.066-3.807-1.247-1.307-1.934-3-1.934-4.77v-.181c0-1.713.667-3.324 1.879-4.536 1.1-1.1 2.564-1.706 4.121-1.706s3.021.606 4.121 1.707zm14.988 3.654c.583.875.891 1.892.891 2.942 0 2.006-.781 3.893-2.2 5.312l-.093.093c-1.478 1.478-3.444 2.292-5.536 2.292h-2.171c-2.415 0-4.152 2.532-4.169 2.557l-1.663-1.112c.094-.14 2.337-3.445 5.832-3.445h2.171c1.557 0 3.021-.606 4.122-1.707l.093-.093c1.041-1.041 1.614-2.425 1.614-3.897 0-.654-.192-1.288-.555-1.832-.613-.921-1.641-1.471-2.748-1.471-.827 0-1.605.322-2.19.907l-.8.8-1.414-1.414.8-.8c.963-.963 2.242-1.493 3.604-1.493 1.777 0 3.427.883 4.412 2.361zm-54.136 42.566c-.219-.395-1.61-1.066-2.3-1.4-1.722-.831-3.673-1.773-3.673-3.527 0-2.935 4.312-3.882 4.804-3.98l.394 1.961c-1.002.203-3.198.994-3.198 2.019 0 .499 1.654 1.297 2.542 1.727 1.7.82 3.458 1.669 3.458 3.273 0 1.149-1.538 2.463-4.571 3.903l-.858-1.807c1.53-.727 3.045-1.699 3.402-2.169zm42.055 5c.358.467 1.9 1.457 3.401 2.169l-.858 1.807c-3.033-1.44-4.571-2.754-4.571-3.903 0-1.604 1.758-2.453 3.458-3.273.888-.43 2.542-1.228 2.542-1.727 0-1.025-2.196-1.816-3.198-2.02l.394-1.961c.492.099 4.804 1.046 4.804 3.981 0 1.754-1.951 2.696-3.672 3.527-.69.333-2.079 1.004-2.3 1.4zm-38.028-9.927c.147.328 1.558.799 2.316 1.051 1.727.576 3.684 1.228 3.684 2.949 0 .719-.551 1.224-1.189 1.809-.587.539-1.392 1.276-1.361 1.903.027.537.64 1.106 1.15 1.489l-1.2 1.6c-1.258-.943-1.895-1.921-1.948-2.99-.077-1.565 1.178-2.715 2.008-3.476.148-.136.333-.305.46-.436-.342-.318-1.554-.722-2.237-.949-1.726-.577-3.683-1.229-3.683-2.95 0-2.646 3.963-3.771 4.757-3.97l.486 1.94c-1.325.335-3.243 1.25-3.243 2.03zm6 11c0 1.654 1.346 3 3 3s3-1.346 3-3-1.346-3-3-3-3 1.346-3 3zm3-1c.551 0 1 .449 1 1s-.449 1-1 1-1-.449-1-1 .449-1 1-1zm27-8c0-1.654-1.346-3-3-3s-3 1.346-3 3 1.346 3 3 3 3-1.346 3-3zm-4 0c0-.551.449-1 1-1s1 .449 1 1-.449 1-1 1-1-.449-1-1zm16 6c-1.654 0-3 1.346-3 3s1.346 3 3 3 3-1.346 3-3-1.346-3-3-3zm0 4c-.551 0-1-.449-1-1s.449-1 1-1 1 .449 1 1-.449 1-1 1zm-30 0h-2v-2h2zm-8-10h-2v-2h2zm-12 8h2v2h-2zm50-10h-2v-2h2zm-18 8h2v2h-2zm9-52h-2v-2h2zm-31 15h2v2h-2zm12-6v-2h2v2zm-28-10h2v2h-2zm54 11v2h-2v-2z" fill="url(#SVGID_1_)"></path></svg> 